<?xml version="1.0" encoding="UTF-8"?>
<!DOCTYPE svg PUBLIC "-//W3C//DTD SVG 1.1//EN" "http://www.w3.org/Graphics/SVG/1.1/DTD/svg11.dtd">
<svg xmlns="http://www.w3.org/2000/svg" version="1.1" width="300px" height="300px" style="shape-rendering:geometricPrecision; text-rendering:geometricPrecision; image-rendering:optimizeQuality; fill-rule:evenodd; clip-rule:evenodd" xmlns:xlink="http://www.w3.org/1999/xlink">
<g><path style="opacity:0.982" fill="#050505" d="M 130.5,-0.5 C 143.5,-0.5 156.5,-0.5 169.5,-0.5C 195.3,3.87945 218.967,13.5461 240.5,28.5C 244.079,26.4288 247.246,23.7621 250,20.5C 252.698,16.633 255.198,12.633 257.5,8.5C 259.353,12.236 260.519,16.236 261,20.5C 261.333,24.8333 261.667,29.1667 262,33.5C 262.516,30.7494 263.683,28.4161 265.5,26.5C 269.253,36.5293 270.419,46.8627 269,57.5C 285.115,79.0188 295.281,103.019 299.5,129.5C 299.5,142.833 299.5,156.167 299.5,169.5C 285.169,241.831 241.835,285.165 169.5,299.5C 156.167,299.5 142.833,299.5 129.5,299.5C 57.1667,285.167 13.8333,241.833 -0.5,169.5C -0.5,156.5 -0.5,143.5 -0.5,130.5C 3.70973,102.912 14.3764,78.0784 31.5,56C 28.7551,46.0087 29.4218,36.1754 33.5,26.5C 35.3173,28.4161 36.484,30.7494 37,33.5C 37.193,25.3439 38.3596,17.3439 40.5,9.5C 41.1667,8.16667 41.8333,8.16667 42.5,9.5C 45.9833,17.8179 51.4833,24.4845 59,29.5C 80.2791,13.3532 104.112,3.35318 130.5,-0.5 Z"/></g>
<g><path style="opacity:1" fill="#f3f3f3" d="M 45.5,24.5 C 55.0939,42.5991 68.4273,57.4325 85.5,69C 99.265,74.7137 112.265,81.7137 124.5,90C 133.969,98.2839 140.302,108.451 143.5,120.5C 143.167,121.833 142.833,123.167 142.5,124.5C 135.141,107.639 123.141,95.1387 106.5,87C 91.3305,82.6195 77.3305,75.9528 64.5,67C 52.8685,57.8908 46.2018,46.0574 44.5,31.5C 44.1984,28.9407 44.5318,26.6074 45.5,24.5 Z"/></g>
<g><path style="opacity:1" fill="#f3f3f3" d="M 253.5,24.5 C 254.461,26.2646 254.795,28.2646 254.5,30.5C 253.578,45.1741 247.245,57.0074 235.5,66C 232.833,68 230.167,70 227.5,72C 212.048,78.8139 196.714,85.8139 181.5,93C 170.329,101.669 161.995,112.502 156.5,125.5C 155.345,122.554 155.179,119.554 156,116.5C 162.302,102.537 171.802,91.3708 184.5,83C 197.483,76.843 210.149,70.1764 222.5,63C 234.944,51.7376 245.277,38.9043 253.5,24.5 Z"/></g>
<g><path style="opacity:1" fill="#636363" d="M 253.5,24.5 C 253.56,23.9569 253.893,23.6236 254.5,23.5C 255.797,25.9732 255.797,28.3066 254.5,30.5C 254.795,28.2646 254.461,26.2646 253.5,24.5 Z"/></g>
<g><path style="opacity:1" fill="#545454" d="M 45.5,24.5 C 44.5318,26.6074 44.1984,28.9407 44.5,31.5C 43.1997,28.9759 43.1997,26.3092 44.5,23.5C 45.1067,23.6236 45.44,23.9569 45.5,24.5 Z"/></g>
<g><path style="opacity:1" fill="#f0f0f0" d="M 139.5,37.5 C 145.987,36.346 152.654,36.1794 159.5,37C 155.325,40.528 151.992,44.6947 149.5,49.5C 147.244,44.5793 143.91,40.5793 139.5,37.5 Z"/></g>
<g><path style="opacity:1" fill="#ededed" d="M 145.5,65.5 C 144.833,66.1667 144.167,66.8333 143.5,67.5C 137.91,55.2459 129.244,45.9126 117.5,39.5C 131.767,37.054 141.267,42.7206 146,56.5C 146.634,59.5547 146.468,62.5547 145.5,65.5 Z"/></g>
<g><path style="opacity:1" fill="#f2f2f2" d="M 154.5,67.5 C 154.167,64.1667 153.833,60.8333 153.5,57.5C 154.915,50.5696 158.582,45.0696 164.5,41C 170.047,38.2111 175.713,37.8777 181.5,40C 174.525,42.969 168.692,47.469 164,53.5C 160.886,58.9007 157.719,63.5673 154.5,67.5 Z"/></g>
<g><path style="opacity:1" fill="#eaeaea" d="M 99.5,44.5 C 117.268,43.7764 129.434,51.4431 136,67.5C 124.201,58.1828 111.035,51.3494 96.5,47C 97.5707,46.1482 98.5707,45.3149 99.5,44.5 Z"/></g>
<g><path style="opacity:1" fill="#ededed" d="M 186.5,44.5 C 192.402,43.962 198.068,44.7953 203.5,47C 188.755,50.456 175.589,56.956 164,66.5C 164.126,63.9023 165.126,61.569 167,59.5C 172.283,52.6923 178.783,47.6923 186.5,44.5 Z"/></g>
<g><path style="opacity:1" fill="#f3f3f3" d="M 157.5,99.5 C 157.167,99.5 156.833,99.5 156.5,99.5C 157.212,97.0721 158.212,94.7388 159.5,92.5C 159.333,92.1667 159.167,91.8333 159,91.5C 156.513,93.8089 154.513,96.4756 153,99.5C 152.775,92.5067 154.775,86.1734 159,80.5C 167.689,69.9052 178.522,62.4052 191.5,58C 203.553,53.0905 215.886,49.4238 228.5,47C 224.833,52 220.5,56.3333 215.5,60C 202.077,66.8092 188.744,73.8092 175.5,81C 168.626,86.3733 162.626,92.54 157.5,99.5 Z"/></g>
<g><path style="opacity:1" fill="#efefef" d="M 36.5,44.5 C 46.7921,60.6227 60.4587,73.1227 77.5,82C 86.4229,85.53 95.4229,88.8633 104.5,92C 112.184,96.0142 119.017,101.181 125,107.5C 128.005,111.123 130.005,115.123 131,119.5C 125.458,114.289 119.625,109.456 113.5,105C 98.5909,98.9776 83.9242,92.4776 69.5,85.5C 69.5,86.5 69.5,87.5 69.5,88.5C 52.3757,78.3822 41.3757,63.7156 36.5,44.5 Z"/></g>
<g><path style="opacity:1" fill="#f4f4f4" d="M 141.5,97.5 C 141.167,97.5 140.833,97.5 140.5,97.5C 133.92,89.419 126.254,82.5856 117.5,77C 105.833,71.8959 94.5002,66.2292 83.5,60C 79.0332,56.5349 74.8666,52.7016 71,48.5C 70.4092,47.5165 70.7425,46.8499 72,46.5C 85.2302,50.799 98.3969,55.299 111.5,60C 127.568,66.0704 139.068,76.9037 146,92.5C 146.667,94.5 146.667,96.5 146,98.5C 144.357,96.0232 142.524,93.6898 140.5,91.5C 140.167,91.8333 139.833,92.1667 139.5,92.5C 140.456,94.0754 141.123,95.742 141.5,97.5 Z"/></g>
<g><path style="opacity:1" fill="#eeeeee" d="M 261.5,44.5 C 262.598,45.6009 262.765,46.9343 262,48.5C 256.141,65.8889 245.308,79.2222 229.5,88.5C 229.5,87.5 229.5,86.5 229.5,85.5C 219.397,91.2589 208.731,95.7589 197.5,99C 186.284,103.728 176.617,110.562 168.5,119.5C 168.167,119.167 167.833,118.833 167.5,118.5C 172.587,107.913 180.253,99.7467 190.5,94C 199.596,89.7454 208.929,86.0788 218.5,83C 237.108,74.8897 251.441,62.0563 261.5,44.5 Z"/></g>
<g><path style="opacity:1" fill="#9e9e9e" d="M 153.5,57.5 C 153.833,60.8333 154.167,64.1667 154.5,67.5C 152.624,64.2631 152.29,60.9298 153.5,57.5 Z"/></g>
<g><path style="opacity:1" fill="#626262" d="M 145.5,65.5 C 145.719,66.675 145.386,67.675 144.5,68.5C 143.893,68.3764 143.56,68.0431 143.5,67.5C 144.167,66.8333 144.833,66.1667 145.5,65.5 Z"/></g>
<g><path style="opacity:1" fill="#cbcbcb" d="M 41.5,66.5 C 47.1031,72.6048 52.9364,78.6048 59,84.5C 59.6667,85.1667 59.6667,85.8333 59,86.5C 51.541,81.2437 45.7077,74.577 41.5,66.5 Z"/></g>
<g><path style="opacity:1" fill="#c8c8c8" d="M 256.5,65.5 C 257.376,65.3691 258.043,65.7025 258.5,66.5C 253.975,74.4009 247.975,80.9009 240.5,86C 239.833,86.6667 239.167,86.6667 238.5,86C 245.476,79.868 251.476,73.0347 256.5,65.5 Z"/></g>
<g><path style="opacity:1" fill="#808080" d="M 140.5,97.5 C 140.833,97.5 141.167,97.5 141.5,97.5C 143.07,98.8748 143.903,100.541 144,102.5C 142.331,101.154 141.164,99.487 140.5,97.5 Z"/></g>
<g><path style="opacity:1" fill="#616161" d="M 156.5,99.5 C 156.833,99.5 157.167,99.5 157.5,99.5C 156.878,100.627 156.045,101.627 155,102.5C 154.415,101.002 154.915,100.002 156.5,99.5 Z"/></g>
<g><path style="opacity:1" fill="#f4f4f4" d="M 50.5,99.5 C 51.3764,99.3691 52.0431,99.7025 52.5,100.5C 50.6132,103.153 49.1132,105.819 48,108.5C 50.2739,104.848 53.4406,103.015 57.5,103C 42.1157,124.519 41.6157,146.353 56,168.5C 75.1712,189.209 96.6712,192.043 120.5,177C 122.667,174.833 124.833,172.667 127,170.5C 125.157,176.284 121.657,181.117 116.5,185C 90.9332,201.419 67.7666,198.586 47,176.5C 31.2583,153.234 30.5916,129.568 45,105.5C 47.0396,103.63 48.8729,101.63 50.5,99.5 Z"/></g>
<g><path style="opacity:1" fill="#f3f3f3" d="M 246.5,99.5 C 252.93,103.105 257.43,108.439 260,115.5C 270.473,144.798 263.64,168.965 239.5,188C 213.599,201.48 191.433,196.98 173,174.5C 172.018,173.241 171.685,171.908 172,170.5C 190.397,189.072 210.897,191.572 233.5,178C 252.329,161.52 257.829,141.353 250,117.5C 247.673,112.175 244.84,107.175 241.5,102.5C 242.79,101.592 244.123,101.759 245.5,103C 247.333,104.833 249.167,106.667 251,108.5C 250.074,105.314 248.574,102.314 246.5,99.5 Z"/></g>
<g><path style="opacity:1" fill="#ebebeb" d="M 95.5,113.5 C 117.582,112.4 125.749,122.4 120,143.5C 112.175,153.288 102.675,155.122 91.5,149C 82.788,140.592 81.288,131.092 87,120.5C 89.6278,117.79 92.4611,115.456 95.5,113.5 Z"/></g>
<g><path style="opacity:1" fill="#ebebeb" d="M 189.5,113.5 C 211.481,112.633 219.315,122.633 213,143.5C 205.498,152.776 196.331,154.943 185.5,150C 172.431,136.188 173.764,124.022 189.5,113.5 Z"/></g>
<g><path style="opacity:1" fill="#ededed" d="M 195.5,164.5 C 197.167,163.833 198.833,163.167 200.5,162.5C 204.342,162.108 208.009,161.108 211.5,159.5C 212.686,158.295 212.686,156.961 211.5,155.5C 223.1,145.034 225.6,132.7 219,118.5C 216.31,114.31 212.81,110.976 208.5,108.5C 208.833,108.167 209.167,107.833 209.5,107.5C 213.421,110.043 217.254,112.71 221,115.5C 221.667,114.833 221.667,114.167 221,113.5C 219.647,112.315 218.48,110.981 217.5,109.5C 218.002,108.479 218.668,108.312 219.5,109C 229.716,117.961 233.216,129.127 230,142.5C 223.87,158.111 212.37,165.445 195.5,164.5 Z"/></g>
<g><path style="opacity:1" fill="#ebebeb" d="M 88.5,107.5 C 89.552,107.351 90.552,107.517 91.5,108C 77.1903,116.594 73.0236,128.76 79,144.5C 81.7851,149.619 85.6184,153.786 90.5,157C 89.1667,157.333 87.8333,157.667 86.5,158C 93.588,162.486 101.255,163.653 109.5,161.5C 112.063,161.737 112.063,162.237 109.5,163C 91.0213,167.96 77.8546,161.793 70,144.5C 65.6354,130.601 68.802,118.768 79.5,109C 80.1667,108.333 80.8333,108.333 81.5,109C 79.3391,111.149 78.1724,113.649 78,116.5C 81.2922,113.127 84.7922,110.127 88.5,107.5 Z"/></g>
<g><path style="opacity:1" fill="#060606" d="M 100.5,116.5 C 115.018,116.224 121.185,123.224 119,137.5C 114.27,145.193 107.437,148.026 98.5,146C 88.7158,139.26 87.0491,130.926 93.5,121C 95.8981,119.476 98.2314,117.976 100.5,116.5 Z"/></g>
<g><path style="opacity:1" fill="#060606" d="M 190.5,116.5 C 205.709,117.195 211.543,124.862 208,139.5C 200.252,147.88 191.919,148.547 183,141.5C 179.713,137.018 178.713,132.018 180,126.5C 182.738,122.26 186.238,118.926 190.5,116.5 Z"/></g>
<g><path style="opacity:1" fill="#ececec" d="M 234.5,107.5 C 238.819,110.41 241.986,114.41 244,119.5C 251.774,141.427 246.607,159.594 228.5,174C 210.075,185.383 193.075,183.716 177.5,169C 181.99,171.245 186.657,173.578 191.5,176C 193.5,176.667 195.5,176.667 197.5,176C 193.759,173.268 189.759,170.934 185.5,169C 183.745,168.28 182.911,167.113 183,165.5C 195.857,172.905 209.024,173.405 222.5,167C 233.574,158.687 239.24,147.52 239.5,133.5C 239.402,125.202 236.735,117.869 231.5,111.5C 232.167,110.167 232.833,110.167 233.5,111.5C 236,115.167 238.5,118.833 241,122.5C 241.167,122 241.333,121.5 241.5,121C 239.531,116.226 237.198,111.726 234.5,107.5 Z"/></g>
<g><path style="opacity:1" fill="#efefef" d="M 62.5,107.5 C 63.3764,107.369 64.0431,107.702 64.5,108.5C 61.5261,112.278 59.1928,116.445 57.5,121C 57.6301,122.059 58.1301,122.892 59,123.5C 60.6014,118.967 63.1014,115.467 66.5,113C 54.9186,133.76 58.2519,151.76 76.5,167C 89.22,173.091 101.887,172.924 114.5,166.5C 115.833,167.167 115.833,167.833 114.5,168.5C 111.301,170.864 107.968,173.03 104.5,175C 109.974,174.673 114.974,172.84 119.5,169.5C 119.833,169.667 120.167,169.833 120.5,170C 110.107,180.013 97.7737,183.346 83.5,180C 63.3606,172.843 52.6939,158.51 51.5,137C 52.1245,125.952 55.7911,116.118 62.5,107.5 Z"/></g>
<g><path style="opacity:1" fill="#f4f4f4" d="M 144.5,152.5 C 144.783,153.289 145.283,153.956 146,154.5C 146.74,153.251 146.573,152.251 145.5,151.5C 145.297,149.956 144.63,148.622 143.5,147.5C 144.868,146.406 146.035,146.74 147,148.5C 146.734,145.099 148.234,143.433 151.5,143.5C 151.34,145.199 151.506,146.866 152,148.5C 153.133,146.789 154.633,146.289 156.5,147C 154.282,149.157 153.115,151.657 153,154.5C 154.323,151.941 156.157,151.275 158.5,152.5C 157.376,153.914 156.376,155.414 155.5,157C 156.549,157.492 157.549,157.326 158.5,156.5C 160.355,169.414 157.355,181.08 149.5,191.5C 142.105,181.255 139.438,169.922 141.5,157.5C 142.451,158.326 143.451,158.492 144.5,158C 142.781,156.13 141.781,153.963 141.5,151.5C 142.791,151.263 143.791,151.596 144.5,152.5 Z"/></g>
<g><path style="opacity:1" fill="#6c6c6c" d="M 145.5,151.5 C 146.573,152.251 146.74,153.251 146,154.5C 145.283,153.956 144.783,153.289 144.5,152.5C 145.167,152.5 145.5,152.167 145.5,151.5 Z"/></g>
<g><path style="opacity:1" fill="#717171" d="M 211.5,155.5 C 212.686,156.961 212.686,158.295 211.5,159.5C 210.646,157.965 210.646,156.632 211.5,155.5 Z"/></g>
<g><path style="opacity:1" fill="#b8b8b8" d="M 200.5,162.5 C 198.833,163.167 197.167,163.833 195.5,164.5C 192.689,164.174 190.022,163.341 187.5,162C 191.791,162.196 196.124,162.363 200.5,162.5 Z"/></g>
<g><path style="opacity:1" fill="#f5f5f5" d="M 158.5,199.5 C 161.572,199.817 164.572,199.484 167.5,198.5C 167.376,197.893 167.043,197.56 166.5,197.5C 166.47,196.503 166.97,195.836 168,195.5C 169.3,196.452 170.467,196.452 171.5,195.5C 170.572,194.232 170.405,192.899 171,191.5C 176.098,195.764 181.598,199.43 187.5,202.5C 171.158,206.989 158.491,216.323 149.5,230.5C 140.148,216.809 127.482,207.476 111.5,202.5C 117.258,199.205 122.758,195.539 128,191.5C 128.49,192.793 128.657,194.127 128.5,195.5C 129.978,195.238 131.311,195.571 132.5,196.5C 132.291,197.086 131.957,197.586 131.5,198C 134.5,198.333 137.5,198.667 140.5,199C 144.081,202.748 147.081,206.915 149.5,211.5C 151.787,206.892 154.787,202.892 158.5,199.5 Z"/></g>
<g><path style="opacity:1" fill="#f1f1f1" d="M 52.5,197.5 C 54.0404,202.253 55.8738,206.92 58,211.5C 58.4955,209.527 58.6621,207.527 58.5,205.5C 58.2627,204.209 58.596,203.209 59.5,202.5C 67.2816,216.973 71.6149,232.306 72.5,248.5C 60.8145,238.466 53.8145,225.799 51.5,210.5C 51.1818,205.968 51.5151,201.634 52.5,197.5 Z"/></g>
<g><path style="opacity:1" fill="#969696" d="M 166.5,197.5 C 167.043,197.56 167.376,197.893 167.5,198.5C 164.572,199.484 161.572,199.817 158.5,199.5C 161.167,198.833 163.833,198.167 166.5,197.5 Z"/></g>
<g><path style="opacity:1" fill="#eeeeee" d="M 239.5,202.5 C 240.319,205.305 240.819,208.305 241,211.5C 241.513,210.473 242.013,209.473 242.5,208.5C 243.779,204.328 245.446,200.328 247.5,196.5C 249.381,216.916 242.714,234.083 227.5,248C 226.517,248.591 225.85,248.257 225.5,247C 227.936,231.412 232.602,216.579 239.5,202.5 Z"/></g>
<g><path style="opacity:1" fill="#787878" d="M 52.5,197.5 C 51.5151,201.634 51.1818,205.968 51.5,210.5C 50.1876,205.985 50.1876,201.318 51.5,196.5C 52.1067,196.624 52.44,196.957 52.5,197.5 Z"/></g>
<g><path style="opacity:1" fill="#7b7b7b" d="M 59.5,202.5 C 58.596,203.209 58.2627,204.209 58.5,205.5C 57.3775,203.712 57.2109,201.712 58,199.5C 59.0386,200.244 59.5386,201.244 59.5,202.5 Z"/></g>
<g><path style="opacity:1" fill="#6c6c6c" d="M 242.5,208.5 C 242.013,209.473 241.513,210.473 241,211.5C 240.819,208.305 240.319,205.305 239.5,202.5C 239.369,201.624 239.702,200.957 240.5,200.5C 241.168,203.306 241.834,205.972 242.5,208.5 Z"/></g>
<g><path style="opacity:1" fill="#f2f2f2" d="M 75.5,211.5 C 75.56,212.043 75.8933,212.376 76.5,212.5C 77.4287,211.311 77.762,209.978 77.5,208.5C 79.8122,210.146 81.8122,212.146 83.5,214.5C 84.1667,212.833 84.8333,211.167 85.5,209.5C 92.2454,215.745 98.0787,222.745 103,230.5C 103.325,228.447 102.991,226.447 102,224.5C 99.7545,219.674 97.2545,215.008 94.5,210.5C 94.6667,210.167 94.8333,209.833 95,209.5C 97.292,210.79 99.292,212.457 101,214.5C 101.617,211.965 101.117,209.632 99.5,207.5C 100.002,206.479 100.668,206.312 101.5,207C 113.803,219.183 117.136,232.85 111.5,248C 99.1702,240.345 88.0035,231.178 78,220.5C 75.6997,216.732 73.5331,212.898 71.5,209C 71.6667,208.5 71.8333,208 72,207.5C 73.3756,208.705 74.5423,210.038 75.5,211.5 Z"/></g>
<g><path style="opacity:1" fill="#f4f4f4" d="M 196.5,208.5 C 197.165,210.369 197.831,212.369 198.5,214.5C 199.107,214.376 199.44,214.043 199.5,213.5C 200.315,212.163 201.482,211.163 203,210.5C 203.167,211 203.333,211.5 203.5,212C 200.607,216.952 198.107,222.119 196,227.5C 195.333,228.833 195.333,230.167 196,231.5C 200.014,223.816 205.181,216.983 211.5,211C 212.167,210.333 212.833,210.333 213.5,211C 214.071,212.205 214.738,213.372 215.5,214.5C 216.939,212.64 218.605,210.973 220.5,209.5C 221.167,210.5 221.833,211.5 222.5,212.5C 223.99,210.874 225.49,209.208 227,207.5C 226.486,211.876 224.819,215.876 222,219.5C 211.523,230.809 199.689,240.476 186.5,248.5C 182.669,233.156 186.002,219.822 196.5,208.5 Z"/></g>
<g><path style="opacity:1" fill="#818181" d="M 196.5,208.5 C 196.56,207.957 196.893,207.624 197.5,207.5C 198.169,209.631 198.835,211.631 199.5,213.5C 199.44,214.043 199.107,214.376 198.5,214.5C 197.831,212.369 197.165,210.369 196.5,208.5 Z"/></g>
<g><path style="opacity:1" fill="#606060" d="M 77.5,208.5 C 77.762,209.978 77.4287,211.311 76.5,212.5C 75.8933,212.376 75.56,212.043 75.5,211.5C 76.1667,210.5 76.8333,209.5 77.5,208.5 Z"/></g>
<g><path style="opacity:1" fill="#ececec" d="M 114.5,214.5 C 122.075,216.24 126.908,220.907 129,228.5C 129.667,232.833 129.667,237.167 129,241.5C 120.504,234.545 115.67,225.545 114.5,214.5 Z"/></g>
<g><path style="opacity:1" fill="#f5f5f5" d="M 171.5,239.5 C 170.518,236.038 170.185,232.371 170.5,228.5C 171.585,222.246 175.085,217.912 181,215.5C 182.395,215.78 183.562,216.447 184.5,217.5C 183.228,226.721 178.894,234.055 171.5,239.5 Z"/></g>
<g><path style="opacity:1" fill="#737373" d="M 139.5,230.5 C 138.691,232.292 138.191,234.292 138,236.5C 137.283,235.956 136.783,235.289 136.5,234.5C 137.163,232.958 137.83,231.291 138.5,229.5C 139.107,229.624 139.44,229.957 139.5,230.5 Z"/></g>
<g><path style="opacity:1" fill="#f5f5f5" d="M 139.5,230.5 C 142.223,233.586 144.723,236.92 147,240.5C 148.149,243.393 148.649,246.393 148.5,249.5C 149.167,252.167 149.833,252.167 150.5,249.5C 150.566,241.704 153.566,235.371 159.5,230.5C 161.575,234.475 162.575,238.808 162.5,243.5C 161.023,252.788 156.689,260.455 149.5,266.5C 139.519,257.903 135.185,247.236 136.5,234.5C 136.783,235.289 137.283,235.956 138,236.5C 138.191,234.292 138.691,232.292 139.5,230.5 Z"/></g>
<g><path style="opacity:1" fill="#a1a1a1" d="M 170.5,228.5 C 170.185,232.371 170.518,236.038 171.5,239.5C 171.217,240.289 170.717,240.956 170,241.5C 169.186,236.98 169.353,232.646 170.5,228.5 Z"/></g>
<g><path style="opacity:1" fill="#f1f1f1" d="M 96.5,254.5 C 96.7828,255.289 97.2828,255.956 98,256.5C 98.7401,255.251 98.5735,254.251 97.5,253.5C 97.4139,251.323 96.7472,249.323 95.5,247.5C 95.8333,247.167 96.1667,246.833 96.5,246.5C 105.469,252.057 108.802,260.057 106.5,270.5C 96.5758,265.737 88.7425,258.737 83,249.5C 81.2658,245.983 80.5992,242.316 81,238.5C 81.7175,237.549 82.5509,237.383 83.5,238C 88.3675,243.039 92.7008,248.539 96.5,254.5 Z"/></g>
<g><path style="opacity:1" fill="#989898" d="M 159.5,230.5 C 159.56,229.957 159.893,229.624 160.5,229.5C 161.298,231.078 161.798,232.744 162,234.5C 162.333,234.167 162.667,233.833 163,233.5C 163.808,237.027 163.641,240.36 162.5,243.5C 162.575,238.808 161.575,234.475 159.5,230.5 Z"/></g>
<g><path style="opacity:1" fill="#f1f1f1" d="M 202.5,251.5 C 201.095,253.225 200.595,255.225 201,257.5C 201.662,256.016 202.496,254.683 203.5,253.5C 206.909,247.834 210.909,242.667 215.5,238C 216.449,237.383 217.282,237.549 218,238.5C 217.911,247.516 214.411,255.016 207.5,261C 202.751,264.794 197.584,267.961 192,270.5C 190.586,260.211 194.086,252.211 202.5,246.5C 203.434,248.095 203.434,249.761 202.5,251.5 Z"/></g>
<g><path style="opacity:1" fill="#f0f0f0" d="M 123.5,266.5 C 123.783,267.289 124.283,267.956 125,268.5C 125.74,267.251 125.573,266.251 124.5,265.5C 122.599,261.022 121.266,256.355 120.5,251.5C 120.833,250.833 121.167,250.167 121.5,249.5C 133.239,257.549 136.906,268.549 132.5,282.5C 120.456,278.378 114.289,270.045 114,257.5C 117.667,260.001 120.834,263.001 123.5,266.5 Z"/></g>
<g><path style="opacity:1" fill="#818181" d="M 148.5,249.5 C 149.167,249.5 149.833,249.5 150.5,249.5C 149.833,252.167 149.167,252.167 148.5,249.5 Z"/></g>
<g><path style="opacity:1" fill="#efefef" d="M 176.5,249.5 C 177.649,249.791 178.316,250.624 178.5,252C 176.794,257.538 175.294,263.038 174,268.5C 177,264.167 180.667,260.5 185,257.5C 184.99,270.685 178.49,278.685 165.5,281.5C 165.123,274.743 165.623,268.076 167,261.5C 169.619,257.05 172.786,253.05 176.5,249.5 Z"/></g>
<g><path style="opacity:1" fill="#6e6e6e" d="M 97.5,253.5 C 98.5735,254.251 98.7401,255.251 98,256.5C 97.2828,255.956 96.7828,255.289 96.5,254.5C 97.1667,254.5 97.5,254.167 97.5,253.5 Z"/></g>
<g><path style="opacity:1" fill="#454545" d="M 202.5,251.5 C 202.328,252.492 202.662,253.158 203.5,253.5C 202.496,254.683 201.662,256.016 201,257.5C 200.595,255.225 201.095,253.225 202.5,251.5 Z"/></g>
<g><path style="opacity:1" fill="#696969" d="M 124.5,265.5 C 125.573,266.251 125.74,267.251 125,268.5C 124.283,267.956 123.783,267.289 123.5,266.5C 124.167,266.5 124.5,266.167 124.5,265.5 Z"/></g>
<g><path style="opacity:1" fill="#f3f3f3" d="M 139.5,268.5 C 142.742,271.399 146.075,274.399 149.5,277.5C 152.818,274.683 155.985,271.683 159,268.5C 160.275,278.846 157.108,287.513 149.5,294.5C 142.294,287.407 138.961,278.74 139.5,268.5 Z"/></g>
</svg>
